<?xml version="1.0" encoding="UTF-8"?>
<svg width="32px" height="32px" viewBox="0 0 32 32" version="1.1" xmlns="http://www.w3.org/2000/svg" xmlns:xlink="http://www.w3.org/1999/xlink">
    <!-- Generator: Sketch 52.1 (67048) - http://www.bohemiancoding.com/sketch -->
    <title>Facebook-black</title>
    <desc>Created with Sketch.</desc>
    <g id="landing-page" stroke="none" stroke-width="1" fill="none" fill-rule="evenodd">
        <g id="medibio-mobile-03" transform="translate(-172.000000, -3917.000000)" fill="#FFFFFF">
            <g id="Group-10" transform="translate(172.000000, 3917.000000)">
                <path d="M17.0922368,32 L1.76615435,32 C0.790448438,32 0,31.209061 0,30.2337352 L0,1.76614064 C0,0.79056647 0.790572605,0 1.76615435,0 L30.2339698,0 C31.2093032,0 32,0.79056647 32,1.76614064 L32,30.2337352 C32,31.2091852 31.2091791,32 30.2339698,32 L22.0795369,32 L22.0795369,19.6078364 L26.2390141,19.6078364 L26.8618368,14.7783904 L22.0795369,14.7783904 L22.0795369,11.6950943 C22.0795369,10.2968582 22.4678077,9.34400646 24.4728598,9.34400646 L27.0302076,9.34288896 L27.0302076,5.0233937 C26.587924,4.9645389 25.0698557,4.83304685 23.3037013,4.83304685 C19.6165561,4.83304685 17.0922368,7.08368417 17.0922368,11.2168059 L17.0922368,14.7783904 L12.9220812,14.7783904 L12.9220812,19.6078364 L17.0922368,19.6078364 L17.0922368,32 L17.0922368,32 Z" id="Facebook"></path>
            </g>
        </g>
    </g>
</svg>