<?xml version="1.0" encoding="UTF-8"?>
<svg width="58px" height="97px" viewBox="0 0 58 97" version="1.1" xmlns="http://www.w3.org/2000/svg" xmlns:xlink="http://www.w3.org/1999/xlink">
    <!-- Generator: Sketch 51.3 (57544) - http://www.bohemiancoding.com/sketch -->
    <title>3</title>
    <desc>Created with Sketch.</desc>
    <defs></defs>
    <g id="landing-page" stroke="none" stroke-width="1" fill="none" fill-rule="evenodd">
        <g id="medibio-desktop-04" transform="translate(-417.000000, -2306.000000)" fill="#F7A962">
            <g id="Group-5" transform="translate(-1.000000, 2290.000000)">
                <g id="Group-3">
                    <g id="Group-4" transform="translate(418.000000, 0.000000)">
                        <path d="M57.5,85.66 C57.5,89.860021 56.6366753,93.6166501 54.91,96.93 C53.1833247,100.24335 50.8500147,103.066655 47.91,105.4 C44.9699853,107.733345 41.4933534,109.529994 37.48,110.79 C33.4666466,112.050006 29.1733562,112.68 24.6,112.68 C20.3066452,112.68 15.9666886,112.213338 11.58,111.28 C7.1933114,110.346662 3.366683,109.133341 0.1,107.64 L3.32,93.08 C6.2133478,94.3866732 9.2233177,95.4366627 12.35,96.23 C15.4766823,97.0233373 18.8133156,97.42 22.36,97.42 C27.6800266,97.42 31.6466536,96.253345 34.26,93.92 C36.8733464,91.586655 38.18,88.6466844 38.18,85.1 C38.18,80.3399762 36.2200196,76.9100105 32.3,74.81 C28.3799804,72.7099895 23.3400308,71.66 17.18,71.66 L9.34,71.66 L9.34,56.12 L14.52,56.12 C21.4267012,56.12 26.7699811,54.8600126 30.55,52.34 C34.3300189,49.8199874 36.22,46.3666886 36.22,41.98 C36.22,38.6199832 35.0766781,36.0300091 32.79,34.21 C30.5033219,32.3899909 27.260021,31.48 23.06,31.48 C17.0866368,31.48 11.4866928,32.7866536 6.26,35.4 L2.9,21.54 C5.8866816,19.8599916 9.5033121,18.5300049 13.75,17.55 C17.9966879,16.5699951 22.4066438,16.08 26.98,16.08 C30.9933534,16.08 34.7499825,16.5933282 38.25,17.62 C41.7500175,18.6466718 44.7833205,20.1399902 47.35,22.1 C49.9166795,24.0600098 51.9233261,26.439986 53.37,29.24 C54.8166739,32.040014 55.54,35.2133156 55.54,38.76 C55.54,44.0800266 54.0700147,48.7699797 51.13,52.83 C48.1899853,56.8900203 43.8266956,60.1333212 38.04,62.56 C40.6533464,63.3066704 43.1499881,64.3566599 45.53,65.71 C47.9100119,67.0633401 49.9866578,68.6966571 51.76,70.61 C53.5333422,72.5233429 54.9333282,74.7399874 55.96,77.26 C56.9866718,79.7800126 57.5,82.5799846 57.5,85.66 Z" id="3"></path>
                    </g>
                </g>
            </g>
        </g>
    </g>
</svg>