<?xml version="1.0" encoding="UTF-8"?>
<svg width="20px" height="20px" viewBox="0 0 20 20" version="1.1" xmlns="http://www.w3.org/2000/svg" xmlns:xlink="http://www.w3.org/1999/xlink">
    <!-- Generator: Sketch 51.3 (57544) - http://www.bohemiancoding.com/sketch -->
    <title>Instagram</title>
    <desc>Created with Sketch.</desc>
    <defs></defs>
    <g id="landing-page" stroke="none" stroke-width="1" fill="none" fill-rule="evenodd">
        <g id="medibio-desktop-04" transform="translate(-289.000000, -3219.000000)" fill="#FFFFFF">
            <g id="Group-8" transform="translate(245.000000, 2938.000000)">
                <g id="Group-6" transform="translate(0.000000, 64.000000)">
                    <path d="M54.0000198,217 C56.7158369,217 57.0563809,217.011512 58.1229872,217.060178 C59.1873706,217.108725 59.9143063,217.277786 60.55038,217.525007 C61.2079684,217.780524 61.7656443,218.122457 62.3216134,218.678387 C62.8775427,219.234356 63.219476,219.792032 63.4750328,220.44962 C63.722214,221.085694 63.8912752,221.812629 63.9398223,222.877013 C63.9884884,223.943619 64,224.284163 64,227.00002 C64,229.715837 63.9884884,230.056381 63.9398223,231.122987 C63.8912752,232.187371 63.722214,232.914306 63.4750328,233.55038 C63.219476,234.207968 62.8775427,234.765644 62.3216134,235.321613 C61.7656443,235.877543 61.2079684,236.219476 60.55038,236.475033 C59.9143063,236.722214 59.1873706,236.891275 58.1229872,236.939822 C57.0563809,236.988488 56.7158369,237 54.0000198,237 C51.2841631,237 50.9436191,236.988488 49.8770128,236.939822 C48.8126294,236.891275 48.0856937,236.722214 47.44962,236.475033 C46.7920316,236.219476 46.2343557,235.877543 45.6783866,235.321613 C45.1224573,234.765644 44.780524,234.207968 44.5250069,233.55038 C44.277786,232.914306 44.1087248,232.187371 44.0601777,231.122987 C44.0115116,230.056381 44,229.715837 44,227.00002 C44,224.284163 44.0115116,223.943619 44.0601777,222.877013 C44.1087248,221.812629 44.277786,221.085694 44.5250069,220.44962 C44.780524,219.792032 45.1224573,219.234356 45.6783866,218.678387 C46.2343557,218.122457 46.7920316,217.780524 47.44962,217.525007 C48.0856937,217.277786 48.8126294,217.108725 49.8770128,217.060178 C50.9436191,217.011512 51.2841631,217 54.0000198,217 Z M54.0000198,218.801799 C51.3298918,218.801799 51.0136015,218.812 49.9591419,218.860111 C48.9841517,218.904569 48.4546593,219.067478 48.1022862,219.204426 C47.635512,219.385832 47.302391,219.602527 46.9524791,219.952479 C46.6025274,220.302391 46.385832,220.635512 46.2044256,221.102286 C46.0674776,221.454659 45.9045691,221.984152 45.8601106,222.959142 C45.8120002,224.013602 45.8017986,224.329892 45.8017986,227.00002 C45.8017986,229.670108 45.8120002,229.986398 45.8601106,231.040858 C45.9045691,232.015848 46.0674776,232.545341 46.2044256,232.897714 C46.385832,233.364488 46.6025671,233.697609 46.9524791,234.047521 C47.302391,234.397473 47.635512,234.614168 48.1022862,234.795574 C48.4546593,234.932522 48.9841517,235.095431 49.9591419,235.139889 C51.0134824,235.188 51.3296933,235.198201 54.0000198,235.198201 C56.6703067,235.198201 56.9865573,235.188 58.0408581,235.139889 C59.0158483,235.095431 59.5453407,234.932522 59.8977138,234.795574 C60.364488,234.614168 60.697609,234.397473 61.0475209,234.047521 C61.3974726,233.697609 61.614168,233.364488 61.7955744,232.897714 C61.9325224,232.545341 62.0954309,232.015848 62.1398894,231.040858 C62.1879998,229.986398 62.1982014,229.670108 62.1982014,227.00002 C62.1982014,224.329892 62.1879998,224.013602 62.1398894,222.959142 C62.0954309,221.984152 61.9325224,221.454659 61.7955744,221.102286 C61.614168,220.635512 61.3974726,220.302391 61.0475209,219.952479 C60.697609,219.602527 60.364488,219.385832 59.8977138,219.204426 C59.5453407,219.067478 59.0158483,218.904569 58.0408581,218.860111 C56.9863985,218.812 56.6701082,218.801799 54.0000198,218.801799 Z M54.0000198,221.864868 C56.8360733,221.864868 59.1351319,224.163927 59.1351319,227.00002 C59.1351319,229.836073 56.8360733,232.135132 54.0000198,232.135132 C51.1639267,232.135132 48.8648681,229.836073 48.8648681,227.00002 C48.8648681,224.163927 51.1639267,221.864868 54.0000198,221.864868 Z M54.0000198,230.333333 C55.8409578,230.333333 57.3333333,228.840958 57.3333333,227.00002 C57.3333333,225.159042 55.8409578,223.666667 54.0000198,223.666667 C52.1590422,223.666667 50.6666667,225.159042 50.6666667,227.00002 C50.6666667,228.840958 52.1590422,230.333333 54.0000198,230.333333 Z M60.5380348,221.661987 C60.5380348,222.324735 60.0007621,222.861968 59.3380134,222.861968 C58.6753043,222.861968 58.1380316,222.324735 58.1380316,221.661987 C58.1380316,220.999238 58.6753043,220.461965 59.3380134,220.461965 C60.0007621,220.461965 60.5380348,220.999238 60.5380348,221.661987 Z" id="Instagram"></path>
                </g>
            </g>
        </g>
    </g>
</svg>