<?xml version="1.0" encoding="UTF-8"?>
<svg width="282px" height="208px" viewBox="0 0 282 208" version="1.1" xmlns="http://www.w3.org/2000/svg" xmlns:xlink="http://www.w3.org/1999/xlink">
    <!-- Generator: Sketch 51.3 (57544) - http://www.bohemiancoding.com/sketch -->
    <title>MEB_LUM_Logomark_tm</title>
    <desc>Created with Sketch.</desc>
    <defs></defs>
    <g id="landing-page" stroke="none" stroke-width="1" fill="none" fill-rule="evenodd">
        <g id="medibio-mobile-menu-01" transform="translate(-47.000000, -403.000000)" fill="#EFA261">
            <g id="MEB_LUM_Logomark_tm" transform="translate(47.000000, 403.000000)">
                <path d="M1.27346154,152.446731 C1.40961538,154.040769 1.57115385,155.626731 1.76096154,157.204615 L70.4857692,157.204615 C73.1032692,155.526346 75.7853846,153.939231 78.5263462,152.446731 L1.27346154,152.446731" id="Fill-1"></path>
                <path d="M280.116538,157.204615 C280.306346,155.626731 280.467885,154.040769 280.604615,152.446731 L203.351154,152.446731 C206.092115,153.939231 208.774231,155.526346 211.391731,157.204615 L280.116538,157.204615" id="Fill-2"></path>
                <path d="M257.227115,61.9863462 L24.6509615,61.9863462 C22.9323077,64.5334615 21.3001923,67.1434615 19.7476923,69.8059615 L262.129808,69.8059615 C260.577308,67.1434615 258.945769,64.5334615 257.227115,61.9863462" id="Fill-3"></path>
                <path d="M247.365192,49.0632692 L34.5123077,49.0632692 C32.2236538,51.7298077 30.0359615,54.4851923 27.9498077,57.3201923 L253.927692,57.3201923 C251.842115,54.4851923 249.653846,51.7298077 247.365192,49.0632692" id="Fill-4"></path>
                <path d="M270.968846,87.8319231 L10.9086538,87.8319231 C9.985,90.1182692 9.11730769,92.4323077 8.3125,94.7769231 L273.565,94.7769231 C272.759615,92.4323077 271.8925,90.1182692 270.968846,87.8319231" id="Fill-5"></path>
                <path d="M278.594615,113.678077 L3.28288462,113.678077 C2.89634615,115.686923 2.55019231,117.709615 2.25076923,119.748462 L279.627308,119.748462 C279.327308,117.709615 278.981154,115.686923 278.594615,113.678077" id="Fill-6"></path>
                <path d="M280.464423,126.601154 L1.41365385,126.601154 C1.23192308,128.468077 1.08942308,130.345962 0.982115385,132.233654 L280.895385,132.233654 C280.788077,130.345962 280.645,128.468077 280.464423,126.601154" id="Fill-7"></path>
                <path d="M281.056923,144.719423 C281.101923,143.255769 281.1325,141.788654 281.1325,140.314038 C281.1325,140.049808 281.123846,139.787885 281.123269,139.524231 L168.476731,139.524231 C174.604808,140.838462 180.574231,142.578462 186.350962,144.719423 L281.056923,144.719423" id="Fill-8"></path>
                <path d="M0.754807692,139.524231 C0.753076923,139.787885 0.744423077,140.049808 0.744423077,140.314038 C0.744423077,141.788654 0.775576923,143.255769 0.820576923,144.719423 L95.5265385,144.719423 C101.302692,142.578462 107.272692,140.838462 113.400769,139.524231 L0.754807692,139.524231" id="Fill-9"></path>
                <path d="M264.961346,74.9088462 L16.9161538,74.9088462 C15.6371154,77.3296154 14.4209615,79.7890385 13.2821154,82.2911538 L268.595385,82.2911538 C267.455962,79.7890385 266.240962,77.3296154 264.961346,74.9088462" id="Fill-10"></path>
                <path d="M140.939038,0.12 C125.334423,0.12 110.3275,2.67288462 96.3071154,7.37826923 L185.570385,7.37826923 C171.550577,2.67288462 156.543077,0.12 140.939038,0.12" id="Fill-11"></path>
                <path d="M193.445385,10.2940385 L88.4321154,10.2940385 C81.7421154,12.9986538 75.3088462,16.2028846 69.1778846,19.8634615 L212.699038,19.8634615 C206.568077,16.2028846 200.135385,12.9986538 193.445385,10.2940385" id="Fill-12"></path>
                <path d="M234.751923,36.1401923 L47.1255769,36.1401923 C44.0557692,38.9065385 41.1117308,41.8096154 38.2969231,44.835 L243.580577,44.835 C240.765192,41.8096154 237.821731,38.9065385 234.751923,36.1401923" id="Fill-13"></path>
                <path d="M275.463654,100.755 L6.41384615,100.755 C5.78326923,102.902885 5.20346154,105.072692 4.67384615,107.262692 L277.203654,107.262692 C276.674615,105.072692 276.094808,102.902885 275.463654,100.755" id="Fill-14"></path>
                <path d="M2.98,165.370385 C3.24134615,166.818462 3.53153846,168.257308 3.83730769,169.690385 L54.0434615,169.690385 C55.7078846,168.207692 57.4098077,166.767692 59.1492308,165.370385 L2.98,165.370385" id="Fill-15"></path>
                <path d="M278.040769,169.690385 C278.345962,168.257308 278.636154,166.818462 278.896923,165.370385 L222.728269,165.370385 C224.467115,166.767692 226.169615,168.207692 227.833462,169.690385 L278.040769,169.690385" id="Fill-16"></path>
                <path d="M274.774231,182.176154 C275.175769,180.889615 275.557115,179.595 275.922885,178.292885 L236.625192,178.292885 C237.808462,179.565 238.970385,180.857308 240.102885,182.176154 L274.774231,182.176154" id="Fill-17"></path>
                <path d="M5.95461538,178.292885 C6.31980769,179.595 6.70173077,180.889615 7.10384615,182.176154 L41.7746154,182.176154 C42.9071154,180.857308 44.0684615,179.565 45.2523077,178.292885 L5.95461538,178.292885" id="Fill-18"></path>
                <path d="M264.207308,207.147115 C264.748462,206.151346 265.278077,205.148654 265.795,204.139038 L255.373462,204.139038 C255.923846,205.134231 256.462692,206.136346 256.987692,207.147115 L264.207308,207.147115" id="Fill-19"></path>
                <path d="M16.0825,204.139038 C16.6,205.148654 17.1290385,206.151346 17.6701923,207.147115 L24.8898077,207.147115 C25.4148077,206.136346 25.9536538,205.134231 26.5040385,204.139038 L16.0825,204.139038" id="Fill-20"></path>
                <path d="M218.037885,23.2171154 L63.8401923,23.2171154 C59.5605769,26.0405769 55.4413462,29.0867308 51.5073077,32.3492308 L230.370192,32.3492308 C226.435577,29.0867308 222.3175,26.0405769 218.037885,23.2171154" id="Fill-23"></path>
                <path d="M270.206731,194.661346 C270.686731,193.521346 271.148846,192.371538 271.6,191.216538 L247.206538,191.216538 C248.021154,192.350769 248.817308,193.5 249.595577,194.661346 L270.206731,194.661346" id="Fill-21"></path>
                <path d="M10.2775,191.216538 C10.7280769,192.371538 11.1907692,193.521346 11.6713462,194.661346 L32.2819231,194.661346 C33.0601923,193.5 33.8563462,192.350769 34.6703846,191.216538 L10.2775,191.216538" id="Fill-22"></path>
            </g>
        </g>
    </g>
</svg>