<?xml version="1.0" encoding="UTF-8"?>
<svg width="24px" height="20px" viewBox="0 0 24 20" version="1.1" xmlns="http://www.w3.org/2000/svg" xmlns:xlink="http://www.w3.org/1999/xlink">
    <!-- Generator: Sketch 51.3 (57544) - http://www.bohemiancoding.com/sketch -->
    <title>Twitter</title>
    <desc>Created with Sketch.</desc>
    <defs></defs>
    <g id="landing-page" stroke="none" stroke-width="1" fill="none" fill-rule="evenodd">
        <g id="medibio-desktop-04" transform="translate(-245.000000, -3219.000000)" fill="#FFFFFF">
            <g id="Group-8" transform="translate(245.000000, 2938.000000)">
                <g id="Group-6" transform="translate(0.000000, 64.000000)">
                    <path d="M24,219.367642 C23.1181546,219.769231 22.1686917,220.040809 21.1727417,220.162152 C22.1898222,219.5381 22.9702412,218.548573 23.3379116,217.369809 C22.3856313,217.947635 21.3333333,218.368003 20.2091918,218.593355 C19.3132594,217.612495 18.0327522,217 16.6156013,217 C13.8982215,217 11.693608,219.260744 11.693608,222.048754 C11.693608,222.444565 11.735869,222.828819 11.8203909,223.198628 C7.72812115,222.987721 4.10072196,220.979776 1.67071668,217.921632 C1.24669836,218.669917 1.00440218,219.5381 1.00440218,220.462622 C1.00440218,222.213434 1.87356929,223.759119 3.19492868,224.664861 C2.38915302,224.640303 1.62845571,224.410618 0.963549921,224.035031 L0.963549921,224.097147 C0.963549921,226.54424 2.66103187,228.58541 4.91494982,229.047671 C4.50220109,229.166125 4.06691319,229.225352 3.6175383,229.225352 C3.30058109,229.225352 2.99066737,229.195016 2.69061454,229.135789 C3.31748547,231.140845 5.13470681,232.6013 7.29001585,232.640303 C5.60521219,233.995305 3.48089452,234.802817 1.17485473,234.802817 C0.77760169,234.802817 0.384574749,234.779704 0,234.733478 C2.17925691,236.163597 4.76844515,237 7.54780771,237 C16.6057404,237 21.5573164,229.307692 21.5573164,222.635247 C21.5573164,222.415674 21.5530903,222.1961 21.5446381,221.98086 C22.5067794,221.268689 23.3421377,220.380282 24,219.367642" id="Twitter"></path>
                </g>
            </g>
        </g>
    </g>
</svg>